<?xml version="1.0" ?><svg viewBox="0 0 128 128" xmlns="http://www.w3.org/2000/svg" xmlns:xlink="http://www.w3.org/1999/xlink"><style>:root>svg{display:none}:root>svg:target{display:block}</style><svg viewBox="0 0 128 128" id="2" xmlns="http://www.w3.org/2000/svg"><path d="M104 49.5C104 28.24 86.26 11 65 11c-26.43 0-47.39 26.63-35.64 54.51A12 12 0 0126 66l2 12a30 30 0 016.38.68l5.34 28.7L53.52 119h22c5-4.18 9.84-7.44 14.8-11.62l5.34-28.7A30 30 0 01102 78l2-12a12 12 0 01-3.49-.52A38.33 38.33 0 00104 49.5z" fill="#e3e2de"/><path d="M100.51 65.48a38.3 38.3 0 003.39-18.74 39 39 0 00-55.5-32 36.74 36.74 0 0125.22 1.1C80.54 18.69 78.49 29 71 29a6 6 0 00-6 6h16.82a14.38 14.38 0 0114.46 14.16v.15a36.08 36.08 0 01-2.4 12.94A2.13 2.13 0 0095.22 65a1.16 1.16 0 01.78 1.3l-.54 3.24a8.9 8.9 0 01-4.9 6.51 4.86 4.86 0 00-2.72 3.44l-3 16.07a22.43 22.43 0 01-8.51 13.79l-.14.11a26.55 26.55 0 01-16 5.39H48.67s-.36-.24 4.85 4.15h22c5-4.18 9.84-7.44 14.8-11.62l5.34-28.7A29.51 29.51 0 01102 78l2-12a11.89 11.89 0 01-3.49-.52z" fill="#fff"/><circle cx="82" cy="52" r="10" fill="#fff"/><path d="M80.16 79.08c5.42-5.35 7.14-13.27 5.37-20.67A18.9 18.9 0 0185 54v-1.83A3.11 3.11 0 0187.84 49 3 3 0 0191 52v1.57c0 5.81 3.58 11.32 9.18 12.86a3 3 0 012.17 3.39l-.81 4.84a3 3 0 01-2.71 2.5C86 78.4 78 87.11 78 99.88a3.1 3.1 0 01-2.82 3.12 3 3 0 01-3.18-3c0-8.54 3-15.79 8.16-20.92z" fill="#fff"/><path d="M67.83 82h-5.66A6 6 0 0157 73l2.83-5a6 6 0 0110.42 0L73 73a6 6 0 01-5.21 9zM65 71l-2.83 5h5.68zM38 35h20v23.69A3.31 3.31 0 0154.69 62H41.31A3.31 3.31 0 0138 58.69V35z" fill="#31352e"/><g fill="#31352e"><path d="M55 93v7a3 3 0 006 0v-7a3 3 0 00-6 0zM62 93v7a3 3 0 006 0v-7a3 3 0 00-6 0zM72 103a3 3 0 003-3v-7a3 3 0 00-6 0v7a3 3 0 003 3z"/><path d="M104 63a9 9 0 01-9-9v-2a13 13 0 10-4 9.4 15.05 15.05 0 009.57 7.2l-1.08 6.49C85.11 76.1 76 85.65 76 100c0 4 6 4 6 0 0-8 3.57-13.91 9.74-16.87l-4.21 22.64c-4.32 3.56-8.69 6.57-13.13 10.23H54.61l-12.14-10.22-3.55-19.11c-.72-3.9-6.62-2.8-5.9 1.1 4.08 22 3.64 21 4.77 21.91C52.79 122.31 52 122 53.52 122c23.65 0 22.74.27 23.9-.71 8.47-7.14 15.37-11 15.81-13.37 5-27 4.92-25.63 4.68-26.63 7.91-1.16 6.15 2.56 9-14.81A3 3 0 00104 63zm-22-4a7 7 0 117-7 7 7 0 01-7 7z"/><path d="M48 100c0 4 6 4 6 0 0-14.35-9.11-23.9-23.44-24.91l-1.08-6.49a15 15 0 008-4.93C39.66 65.39 40.27 65 54.69 65A6.31 6.31 0 0061 58.69V38h38.05a35.21 35.21 0 011.06 19.44c-.89 3.88 5 5.23 5.85 1.33a41.26 41.26 0 00-.7-21.06A3 3 0 00104 32h-.93C88 .12 42.14 0 27 32h-1c-4 0-4 6 0 6h9c0 16.92.93 20.11-3.94 23.44a35.4 35.4 0 01-1.55-17.88c.68-3.91-5.23-4.93-5.91-1a41.42 41.42 0 001.68 20.56A3 3 0 0023 66.49l2 12A3 3 0 0028 81c12.34 0 20 7.28 20 19zm7-41.31a.31.31 0 01-.31.31H41.31a.31.31 0 01-.31-.31V38h14zM33.75 32C47.66 7.93 82.52 8.12 96.3 32z"/></g><circle cx="82" cy="52" r="3" fill="#31352e"/></svg><svg viewBox="0 0 128 128" id="2_—_копия" xmlns="http://www.w3.org/2000/svg"><path d="M104 49.5C104 28.24 86.26 11 65 11c-26.43 0-47.39 26.63-35.64 54.51A12 12 0 0126 66l2 12a30 30 0 016.38.68l5.34 28.7L53.52 119h22c5-4.18 9.84-7.44 14.8-11.62l5.34-28.7A30 30 0 01102 78l2-12a12 12 0 01-3.49-.52A38.33 38.33 0 00104 49.5z" fill="#e3e2de"/><path d="M100.51 65.48a38.3 38.3 0 003.39-18.74 39 39 0 00-55.5-32 36.74 36.74 0 0125.22 1.1C80.54 18.69 78.49 29 71 29a6 6 0 00-6 6h16.82a14.38 14.38 0 0114.46 14.16v.15a36.08 36.08 0 01-2.4 12.94A2.13 2.13 0 0095.22 65a1.16 1.16 0 01.78 1.3l-.54 3.24a8.9 8.9 0 01-4.9 6.51 4.86 4.86 0 00-2.72 3.44l-3 16.07a22.43 22.43 0 01-8.51 13.79l-.14.11a26.55 26.55 0 01-16 5.39H48.67s-.36-.24 4.85 4.15h22c5-4.18 9.84-7.44 14.8-11.62l5.34-28.7A29.51 29.51 0 01102 78l2-12a11.89 11.89 0 01-3.49-.52z" fill="#fff"/><circle cx="82" cy="52" r="10" fill="#fff"/><path d="M80.16 79.08c5.42-5.35 7.14-13.27 5.37-20.67A18.9 18.9 0 0185 54v-1.83A3.11 3.11 0 0187.84 49 3 3 0 0191 52v1.57c0 5.81 3.58 11.32 9.18 12.86a3 3 0 012.17 3.39l-.81 4.84a3 3 0 01-2.71 2.5C86 78.4 78 87.11 78 99.88a3.1 3.1 0 01-2.82 3.12 3 3 0 01-3.18-3c0-8.54 3-15.79 8.16-20.92z" fill="#fff"/><path d="M67.83 82h-5.66A6 6 0 0157 73l2.83-5a6 6 0 0110.42 0L73 73a6 6 0 01-5.21 9zM65 71l-2.83 5h5.68zM38 35h20v23.69A3.31 3.31 0 0154.69 62H41.31A3.31 3.31 0 0138 58.69V35z" fill="#31352e"/><g fill="#31352e"><path d="M55 93v7a3 3 0 006 0v-7a3 3 0 00-6 0zM62 93v7a3 3 0 006 0v-7a3 3 0 00-6 0zM72 103a3 3 0 003-3v-7a3 3 0 00-6 0v7a3 3 0 003 3z"/><path d="M104 63a9 9 0 01-9-9v-2a13 13 0 10-4 9.4 15.05 15.05 0 009.57 7.2l-1.08 6.49C85.11 76.1 76 85.65 76 100c0 4 6 4 6 0 0-8 3.57-13.91 9.74-16.87l-4.21 22.64c-4.32 3.56-8.69 6.57-13.13 10.23H54.61l-12.14-10.22-3.55-19.11c-.72-3.9-6.62-2.8-5.9 1.1 4.08 22 3.64 21 4.77 21.91C52.79 122.31 52 122 53.52 122c23.65 0 22.74.27 23.9-.71 8.47-7.14 15.37-11 15.81-13.37 5-27 4.92-25.63 4.68-26.63 7.91-1.16 6.15 2.56 9-14.81A3 3 0 00104 63zm-22-4a7 7 0 117-7 7 7 0 01-7 7z"/><path d="M48 100c0 4 6 4 6 0 0-14.35-9.11-23.9-23.44-24.91l-1.08-6.49a15 15 0 008-4.93C39.66 65.39 40.27 65 54.69 65A6.31 6.31 0 0061 58.69V38h38.05a35.21 35.21 0 011.06 19.44c-.89 3.88 5 5.23 5.85 1.33a41.26 41.26 0 00-.7-21.06A3 3 0 00104 32h-.93C88 .12 42.14 0 27 32h-1c-4 0-4 6 0 6h9c0 16.92.93 20.11-3.94 23.44a35.4 35.4 0 01-1.55-17.88c.68-3.91-5.23-4.93-5.91-1a41.42 41.42 0 001.68 20.56A3 3 0 0023 66.49l2 12A3 3 0 0028 81c12.34 0 20 7.28 20 19zm7-41.31a.31.31 0 01-.31.31H41.31a.31.31 0 01-.31-.31V38h14zM33.75 32C47.66 7.93 82.52 8.12 96.3 32z"/></g><circle cx="82" cy="52" r="3" fill="#31352e"/></svg><svg viewBox="0 0 128 128" id="2_—_копия_(2)" xmlns="http://www.w3.org/2000/svg"><path d="M104 49.5C104 28.24 86.26 11 65 11c-26.43 0-47.39 26.63-35.64 54.51A12 12 0 0126 66l2 12a30 30 0 016.38.68l5.34 28.7L53.52 119h22c5-4.18 9.84-7.44 14.8-11.62l5.34-28.7A30 30 0 01102 78l2-12a12 12 0 01-3.49-.52A38.33 38.33 0 00104 49.5z" fill="#e3e2de"/><path d="M100.51 65.48a38.3 38.3 0 003.39-18.74 39 39 0 00-55.5-32 36.74 36.74 0 0125.22 1.1C80.54 18.69 78.49 29 71 29a6 6 0 00-6 6h16.82a14.38 14.38 0 0114.46 14.16v.15a36.08 36.08 0 01-2.4 12.94A2.13 2.13 0 0095.22 65a1.16 1.16 0 01.78 1.3l-.54 3.24a8.9 8.9 0 01-4.9 6.51 4.86 4.86 0 00-2.72 3.44l-3 16.07a22.43 22.43 0 01-8.51 13.79l-.14.11a26.55 26.55 0 01-16 5.39H48.67s-.36-.24 4.85 4.15h22c5-4.18 9.84-7.44 14.8-11.62l5.34-28.7A29.51 29.51 0 01102 78l2-12a11.89 11.89 0 01-3.49-.52z" fill="#fff"/><circle cx="82" cy="52" r="10" fill="#fff"/><path d="M80.16 79.08c5.42-5.35 7.14-13.27 5.37-20.67A18.9 18.9 0 0185 54v-1.83A3.11 3.11 0 0187.84 49 3 3 0 0191 52v1.57c0 5.81 3.58 11.32 9.18 12.86a3 3 0 012.17 3.39l-.81 4.84a3 3 0 01-2.71 2.5C86 78.4 78 87.11 78 99.88a3.1 3.1 0 01-2.82 3.12 3 3 0 01-3.18-3c0-8.54 3-15.79 8.16-20.92z" fill="#fff"/><path d="M67.83 82h-5.66A6 6 0 0157 73l2.83-5a6 6 0 0110.42 0L73 73a6 6 0 01-5.21 9zM65 71l-2.83 5h5.68zM38 35h20v23.69A3.31 3.31 0 0154.69 62H41.31A3.31 3.31 0 0138 58.69V35z" fill="#31352e"/><g fill="#31352e"><path d="M55 93v7a3 3 0 006 0v-7a3 3 0 00-6 0zM62 93v7a3 3 0 006 0v-7a3 3 0 00-6 0zM72 103a3 3 0 003-3v-7a3 3 0 00-6 0v7a3 3 0 003 3z"/><path d="M104 63a9 9 0 01-9-9v-2a13 13 0 10-4 9.4 15.05 15.05 0 009.57 7.2l-1.08 6.49C85.11 76.1 76 85.65 76 100c0 4 6 4 6 0 0-8 3.57-13.91 9.74-16.87l-4.21 22.64c-4.32 3.56-8.69 6.57-13.13 10.23H54.61l-12.14-10.22-3.55-19.11c-.72-3.9-6.62-2.8-5.9 1.1 4.08 22 3.64 21 4.77 21.91C52.79 122.31 52 122 53.52 122c23.65 0 22.74.27 23.9-.71 8.47-7.14 15.37-11 15.81-13.37 5-27 4.92-25.63 4.68-26.63 7.91-1.16 6.15 2.56 9-14.81A3 3 0 00104 63zm-22-4a7 7 0 117-7 7 7 0 01-7 7z"/><path d="M48 100c0 4 6 4 6 0 0-14.35-9.11-23.9-23.44-24.91l-1.08-6.49a15 15 0 008-4.93C39.66 65.39 40.27 65 54.69 65A6.31 6.31 0 0061 58.69V38h38.05a35.21 35.21 0 011.06 19.44c-.89 3.88 5 5.23 5.85 1.33a41.26 41.26 0 00-.7-21.06A3 3 0 00104 32h-.93C88 .12 42.14 0 27 32h-1c-4 0-4 6 0 6h9c0 16.92.93 20.11-3.94 23.44a35.4 35.4 0 01-1.55-17.88c.68-3.91-5.23-4.93-5.91-1a41.42 41.42 0 001.68 20.56A3 3 0 0023 66.49l2 12A3 3 0 0028 81c12.34 0 20 7.28 20 19zm7-41.31a.31.31 0 01-.31.31H41.31a.31.31 0 01-.31-.31V38h14zM33.75 32C47.66 7.93 82.52 8.12 96.3 32z"/></g><circle cx="82" cy="52" r="3" fill="#31352e"/></svg><svg viewBox="0 0 128 128" id="2_—_копия_(3)" xmlns="http://www.w3.org/2000/svg"><path d="M104 49.5C104 28.24 86.26 11 65 11c-26.43 0-47.39 26.63-35.64 54.51A12 12 0 0126 66l2 12a30 30 0 016.38.68l5.34 28.7L53.52 119h22c5-4.18 9.84-7.44 14.8-11.62l5.34-28.7A30 30 0 01102 78l2-12a12 12 0 01-3.49-.52A38.33 38.33 0 00104 49.5z" fill="#e3e2de"/><path d="M100.51 65.48a38.3 38.3 0 003.39-18.74 39 39 0 00-55.5-32 36.74 36.74 0 0125.22 1.1C80.54 18.69 78.49 29 71 29a6 6 0 00-6 6h16.82a14.38 14.38 0 0114.46 14.16v.15a36.08 36.08 0 01-2.4 12.94A2.13 2.13 0 0095.22 65a1.16 1.16 0 01.78 1.3l-.54 3.24a8.9 8.9 0 01-4.9 6.51 4.86 4.86 0 00-2.72 3.44l-3 16.07a22.43 22.43 0 01-8.51 13.79l-.14.11a26.55 26.55 0 01-16 5.39H48.67s-.36-.24 4.85 4.15h22c5-4.18 9.84-7.44 14.8-11.62l5.34-28.7A29.51 29.51 0 01102 78l2-12a11.89 11.89 0 01-3.49-.52z" fill="#fff"/><circle cx="82" cy="52" r="10" fill="#fff"/><path d="M80.16 79.08c5.42-5.35 7.14-13.27 5.37-20.67A18.9 18.9 0 0185 54v-1.83A3.11 3.11 0 0187.84 49 3 3 0 0191 52v1.57c0 5.81 3.58 11.32 9.18 12.86a3 3 0 012.17 3.39l-.81 4.84a3 3 0 01-2.71 2.5C86 78.4 78 87.11 78 99.88a3.1 3.1 0 01-2.82 3.12 3 3 0 01-3.18-3c0-8.54 3-15.79 8.16-20.92z" fill="#fff"/><path d="M67.83 82h-5.66A6 6 0 0157 73l2.83-5a6 6 0 0110.42 0L73 73a6 6 0 01-5.21 9zM65 71l-2.83 5h5.68zM38 35h20v23.69A3.31 3.31 0 0154.69 62H41.31A3.31 3.31 0 0138 58.69V35z" fill="#31352e"/><g fill="#31352e"><path d="M55 93v7a3 3 0 006 0v-7a3 3 0 00-6 0zM62 93v7a3 3 0 006 0v-7a3 3 0 00-6 0zM72 103a3 3 0 003-3v-7a3 3 0 00-6 0v7a3 3 0 003 3z"/><path d="M104 63a9 9 0 01-9-9v-2a13 13 0 10-4 9.4 15.05 15.05 0 009.57 7.2l-1.08 6.49C85.11 76.1 76 85.65 76 100c0 4 6 4 6 0 0-8 3.57-13.91 9.74-16.87l-4.21 22.64c-4.32 3.56-8.69 6.57-13.13 10.23H54.61l-12.14-10.22-3.55-19.11c-.72-3.9-6.62-2.8-5.9 1.1 4.08 22 3.64 21 4.77 21.91C52.79 122.31 52 122 53.52 122c23.65 0 22.74.27 23.9-.71 8.47-7.14 15.37-11 15.81-13.37 5-27 4.92-25.63 4.68-26.63 7.91-1.16 6.15 2.56 9-14.81A3 3 0 00104 63zm-22-4a7 7 0 117-7 7 7 0 01-7 7z"/><path d="M48 100c0 4 6 4 6 0 0-14.35-9.11-23.9-23.44-24.91l-1.08-6.49a15 15 0 008-4.93C39.66 65.39 40.27 65 54.69 65A6.31 6.31 0 0061 58.69V38h38.05a35.21 35.21 0 011.06 19.44c-.89 3.88 5 5.23 5.85 1.33a41.26 41.26 0 00-.7-21.06A3 3 0 00104 32h-.93C88 .12 42.14 0 27 32h-1c-4 0-4 6 0 6h9c0 16.92.93 20.11-3.94 23.44a35.4 35.4 0 01-1.55-17.88c.68-3.91-5.23-4.93-5.91-1a41.42 41.42 0 001.68 20.56A3 3 0 0023 66.49l2 12A3 3 0 0028 81c12.34 0 20 7.28 20 19zm7-41.31a.31.31 0 01-.31.31H41.31a.31.31 0 01-.31-.31V38h14zM33.75 32C47.66 7.93 82.52 8.12 96.3 32z"/></g><circle cx="82" cy="52" r="3" fill="#31352e"/></svg><svg fill="none" viewBox="0 0 11 20" id="facebook" xmlns="http://www.w3.org/2000/svg"><path d="M9.12 3.32H11V.14A26.111 26.111 0 008.26 0C5.54 0 3.68 1.66 3.68 4.7v2.62H.61v3.56h3.07V20h3.68v-9.12h3.06l.46-3.56H7.36V5.05c0-1.05.28-1.73 1.76-1.73z" fill="#F5EFDB"/></svg><svg fill="none" viewBox="0 0 20 20" id="instagram" xmlns="http://www.w3.org/2000/svg"><path d="M15.34 3.46a1.2 1.2 0 100 2.4 1.2 1.2 0 000-2.4zm4.6 2.42a7.588 7.588 0 00-.46-2.43 4.94 4.94 0 00-1.16-1.77A4.7 4.7 0 0016.55.53a7.3 7.3 0 00-2.43-.47C13.06 0 12.72 0 10 0S6.94 0 5.88.06a7.3 7.3 0 00-2.43.47 4.78 4.78 0 00-1.77 1.15A4.7 4.7 0 00.53 3.45a7.3 7.3 0 00-.47 2.43C0 6.94 0 7.28 0 10s0 3.06.06 4.12a7.3 7.3 0 00.47 2.43 4.7 4.7 0 001.15 1.77 4.78 4.78 0 001.77 1.15 7.3 7.3 0 002.43.47C6.94 20 7.28 20 10 20s3.06 0 4.12-.06a7.3 7.3 0 002.43-.47 4.7 4.7 0 001.77-1.15 4.85 4.85 0 001.16-1.77c.285-.78.44-1.6.46-2.43 0-1.06.06-1.4.06-4.12s0-3.06-.06-4.12zM18.14 14a5.61 5.61 0 01-.34 1.86 3.06 3.06 0 01-.75 1.15c-.324.33-.717.586-1.15.75a5.61 5.61 0 01-1.86.34c-1 .05-1.37.06-4 .06s-3 0-4-.06a5.73 5.73 0 01-1.94-.3 3.27 3.27 0 01-1.1-.75 3 3 0 01-.74-1.15 5.54 5.54 0 01-.4-1.9c0-1-.06-1.37-.06-4s0-3 .06-4a5.54 5.54 0 01.35-1.9A3 3 0 013 3a3.14 3.14 0 011.1-.8A5.73 5.73 0 016 1.86c1 0 1.37-.06 4-.06s3 0 4 .06a5.61 5.61 0 011.86.34 3.06 3.06 0 011.19.8c.328.307.584.683.75 1.1.222.609.337 1.252.34 1.9.05 1 .06 1.37.06 4s-.01 3-.06 4zM10 4.87A5.13 5.13 0 1015.14 10 5.12 5.12 0 0010 4.87zm0 8.46a3.33 3.33 0 110-6.66 3.33 3.33 0 010 6.66z" fill="#F5EFDB"/></svg><svg fill="none" viewBox="0 0 47 40" id="quote" xmlns="http://www.w3.org/2000/svg"><path d="M12.914 22.857c2.402 0 4.304.802 5.706 2.406 1.501 1.504 2.252 3.509 2.252 6.015 0 2.707-.9 4.862-2.703 6.466C16.468 39.248 14.115 40 11.112 40c-3.504 0-6.257-1.353-8.259-4.06C.951 33.233 0 29.373 0 24.36c0-4.51 1.001-8.67 3.003-12.48C5.005 7.97 8.01 4.06 12.013.15c.1-.1.25-.15.45-.15.3 0 .55.15.751.451.2.3.2.551 0 .752C8.31 6.216 5.856 12.13 5.856 18.947c0 2.807.5 4.863 1.502 6.166.9-1.504 2.753-2.256 5.556-2.256zm26.128 0c2.402 0 4.304.802 5.706 2.406C46.249 26.767 47 28.772 47 31.278c0 2.707-.901 4.862-2.703 6.466C42.595 39.248 40.243 40 37.24 40c-3.504 0-6.257-1.353-8.26-4.06-1.901-2.707-2.852-6.567-2.852-11.58 0-4.51 1-8.67 3.003-12.48 2.002-3.91 5.005-7.82 9.01-11.73.1-.1.25-.15.45-.15.3 0 .55.15.75.451.201.3.201.551 0 .752-4.904 5.013-7.357 10.927-7.357 17.744 0 2.807.5 4.863 1.502 6.166.9-1.504 2.753-2.256 5.556-2.256z" fill="#fff"/></svg><svg fill="none" viewBox="0 0 14 9" id="select-arrow" xmlns="http://www.w3.org/2000/svg"><path d="M7.576 8.488l5.433-5.922a1.054 1.054 0 000-1.455c-.388-.415-.97-.415-1.358 0L6.8 6.202l-4.85-5.09C1.56.695.98.695.59 1.111a.976.976 0 00-.291.727c0 .311.097.52.291.727l5.433 5.922c.485.416 1.067.416 1.552 0-.097 0-.097 0 0 0z" fill="#AAA"/></svg><svg fill="none" viewBox="0 0 23 20" id="twitter" xmlns="http://www.w3.org/2000/svg"><path d="M22.991 1.95a1 1 0 00-1.51-.86 7.48 7.48 0 01-1.873.794A5.152 5.152 0 0016.233.642a5.233 5.233 0 00-5.223 5.063 11.032 11.032 0 01-6.814-3.924 1.011 1.011 0 00-.857-.365.998.998 0 00-.785.5 5.275 5.275 0 00-.242 4.769l-.002.002a1.041 1.041 0 00-.496.888c-.001.147.007.294.027.44a5.185 5.185 0 001.568 3.312.999.999 0 00-.066.77 5.204 5.204 0 002.362 2.921 7.465 7.465 0 01-3.59.449A1 1 0 001.45 17.3a12.942 12.942 0 007.01 2.061 12.788 12.788 0 0012.465-9.363c.353-1.183.533-2.412.535-3.646l-.001-.2a5.77 5.77 0 001.532-4.202zm-3.306 3.212a.995.995 0 00-.234.702c.01.165.009.331.009.488a10.826 10.826 0 01-.454 3.08 10.685 10.685 0 01-10.546 7.93c-.86 0-1.715-.101-2.55-.301a9.48 9.48 0 002.942-1.564 1.001 1.001 0 00-.602-1.786 3.208 3.208 0 01-2.214-.935c.15-.028.298-.063.445-.105a1 1 0 00-.08-1.944 3.197 3.197 0 01-2.25-1.725c.181.025.363.04.545.046a1.021 1.021 0 00.984-.696 1 1 0 00-.4-1.137A3.196 3.196 0 013.86 4.344a13.014 13.014 0 008.21 3.48 1.02 1.02 0 00.817-.36 1 1 0 00.206-.867 3.164 3.164 0 01-.087-.729 3.23 3.23 0 014.506-2.962c.403.176.766.433 1.065.756a.993.993 0 00.921.298 9.27 9.27 0 001.212-.322 6.679 6.679 0 01-1.026 1.524z" fill="#F5EFDB"/></svg></svg>